<?xml version="1.0" encoding="utf-8"?>
<!-- Generator: Adobe Illustrator 24.2.1, SVG Export Plug-In . SVG Version: 6.00 Build 0)  -->
<svg version="1.1" id="Calque_1" xmlns="http://www.w3.org/2000/svg" xmlns:xlink="http://www.w3.org/1999/xlink" x="0px" y="0px"
	 viewBox="0 0 454.42 262.88" style="enable-background:new 0 0 454.42 262.88;" xml:space="preserve">
<style type="text/css">
	.st0{fill-rule:evenodd;clip-rule:evenodd;fill:#FE5815;}
	.st1{fill:#09357A;}
</style>
<g>
	<g>
		<g>
			<g>
				<g>
					<g>
						<g>
							<path class="st0" d="M146.05,82.29c0.53-4.43-0.13-10.89,3.37-13.93c1.02-4.72,8.45-3.62,7.29-6.62
								c-0.72-1.88-4.21-0.99-5.63-0.64c-1.07,0.26-11.26,3.48-15.18,3.92c-1.66-0.46-3.31-0.93-4.98-1.39
								c-6.39,0.86-10.08,5.95-13.64,9.99c-2.99,3.39-7.02,11.68-3.81,16.65c-0.18,1.08-0.36,2.17-0.54,3.26l7.27,10.62
								c2.51,1.79,2.84,3.13,5.54,4.9c0.56,0.84,1.11,1.67,1.67,2.51c2.21,1.45,8.71,1.47,9.81,0.52
								c10.47,0.98,9.33-20.23,12.66-24.68C149.47,85.39,147.71,83.32,146.05,82.29z M100.89,145.97c2.22-0.58,6.01-0.87,7.99-1.86
								c3.16-1.58,14.03-9.19,10.57-15.37c-1.07-13.03-16.8-2.02-23.5-6.59c-6.78-0.87-14.4-13.69-16.44-19.19
								c-0.8-2.17-0.47-1.43-1.55-3.15c0.01-0.18-0.69,0.6-0.69,0.42c-1.98,2.31-1.64,4.32-1.95,9.95
								c-0.89-0.05-1.77-0.11-2.67-0.17c-0.17,2.04-0.38,3.15-1.33,4.2c-0.19,0.35-0.4,0.68-0.59,1.03
								c-1.69-0.57-0.84,0.24-1.53-1.17c-6.24,0.31-5.78,6.58-8.65,10.15C60.71,135.93,83.88,150.38,100.89,145.97z M177.89,110.41
								c-10.12,1.53-16.3,4.75-20.12,7.39c-2.66,1.86-3.45,3.11-4.02,3.89c-0.58,0.78-0.97,2.52-0.68,4.34
								c0.29,1.81,1.03,3.74,2.61,4.81c12.42-0.92,33.98-1.7,38.18,8.73c0.23,1.45,0.55,2.32,0.58,2.67
								c4.11-1.01,1.11-0.65,7.16,0.3c1.39,0.21,4.81-0.55,7.08-1.11c1.03-0.24,1.61-1.18,1.61-1.18s-0.19-0.99-0.13-1.53
								c0,0,2.12,0.16,3-0.51c5.74-0.93,2.72-3.63,5.43-6.67C216.95,112.05,196.94,107.52,177.89,110.41z M155.72,152.82
								c-2.88,2.2-4.09,1.66-5.78,5.06c-0.17,0,0.26,0.52,0.08,0.52c1.72,3.43,5.66,4.81,8.55,7.22c0.9,0.76,3.34,4.99,4.5,5.3
								c1.3,1.55,2.15,5.86,3,5.86c0.89,1.21-0.07,4.06,0.8,5.16c0.07,5.1-0.65,5.46-1.53,6.44c0,0.36,0.49,1.28,0.49,1.63
								c0.24,0.24,2.28,1.71,3.18,1.53c2.77,0.09,14.15,8.96,15.05,10.67c8.16,0.61,7.57-1.88,13.2-4.27
								c1.52-0.65,2.73-0.03,3.73-1.08c1.04-1.07,1.13-3.18,2.14-4.27C203.26,172.53,175.95,153.52,155.72,152.82z M123.57,157.41
								c-1.14,1.21-4.26,1.66-5.13,3.04c-1.34,2.09-4.4,6.86-6.8,9.13c-7.73,7.34-24.27,11.02-32.44,4.01
								c-0.53,0.04-0.22,0.34,0.42,2.35c0.6,3.8,3.66,12.71,2.53,14.99c0.73,2.53,1.5,1.6,2.88,3c0.95,0.95,1.34,3.43,2.43,4.1
								c1.25-0.08,2.49-0.17,3.73-0.26c0.22,0.69,0.46,1.39,0.68,2.1c1.59-0.12,3.19-0.23,4.79-0.35c0.9,0.2,3.61,1.61,4.41,1.82
								c1.77-0.13,3.55-0.24,5.32-0.37c4.06,1.08,7.6-0.62,11.03-2.93c1.91-1.28,4-1.08,5.7-2.53c2.46-2.11,5.81-6.23,7.37-9.08
								c3.85-6.99,2.54-23.71-0.94-27.85C128.17,157.09,126.56,157.07,123.57,157.41z"/>
						</g>
						<g>
							<path class="st1" d="M319.49,111.79c16.81,0,28.17,10.62,28.17,29.62c0,23.89-15.61,30.95-31.97,30.95h-21.9
								c0.08-1.32,0-4.86,0-9.29v-42.01c0-4.42,0.08-7.25,0-9.28H319.49z M314.58,160.87c9.28,0,16.82-3.07,16.82-19.45
								c0-13.93-7.55-18.57-16.82-18.57h-4.87v38.03H314.58z"/>
							<path class="st1" d="M371.47,163.08c0,4.43,0.22,9.29,0.22,9.29h-16.25c0,0,0.11-4.86,0.11-9.29v-42.01
								c0-4.42-0.11-9.28-0.11-9.28h38.41v11.72c0,0-8.58-0.22-11.5-0.22h-10.88v12.2l10.88,0.11c2.04,0,9.05-0.11,9.05-0.11v11.16
								c0,0-6.22-0.17-9.05-0.17l-10.88,0.07V163.08z"/>
							<path class="st1" d="M261.37,160.12c-7.65,0-13.52-5.14-13.52-13.17v-0.68c0,0,14.19-0.35,19-0.35
								c8.19,0,11.56-0.08,18.01-0.16c0-1.21,0-4.57,0-4.57c0-20.65-8.76-30.69-26.78-30.69c-8.31,0-27.64,3.12-27.64,32.03
								c0,19.28,9.74,30.8,26.76,30.8c13.36,0,21.57-3.41,27.51-7.75c-0.67-1-5.65-9.95-6.3-10.92
								C274.84,157.39,268.96,160.12,261.37,160.12z M247.85,134.68c0.24-3.51,1.49-11.65,10.34-11.65c9.07,0,9.57,7.65,9.57,11.69
								v0.82c0,0-6.05,0.16-9.67,0.16c-3.62,0-10.29-0.16-10.29-0.16L247.85,134.68z"/>
						</g>
					</g>
				</g>
			</g>
		</g>
	</g>
</g>
</svg>
